<svg width="96" height="96" viewBox="0 0 96 96" fill="none" xmlns="http://www.w3.org/2000/svg">
<path d="M70.4603 15.3599H54.3858V8.03442H32.5573V15.3599H16.4828V26.9266H70.4603V15.3599ZM38.3406 13.8177H48.6025V15.3599H38.3406V13.8177Z" fill="#FF0000"/>
<path d="M65.3241 49.3484L66.4152 32.7098H20.528L24.1938 88.6151H46.2035C43.3387 84.5539 41.6536 79.6036 41.6536 74.2668C41.6536 60.9382 52.1588 50.0172 65.3241 49.3484Z" fill="#FF0000"/>
<path d="M66.6048 55.0992C56.0356 55.0992 47.437 63.6979 47.437 74.2669C47.437 84.8359 56.0356 93.4347 66.6048 93.4347C77.174 93.4347 85.7726 84.836 85.7726 74.2669C85.7726 63.6977 77.174 55.0992 66.6048 55.0992ZM77.0487 80.6214L72.9593 84.7107L66.6048 78.3562L60.2503 84.7107L56.1609 80.6214L62.5154 74.2669L56.1609 67.9124L60.2503 63.823L66.6048 70.1775L72.9593 63.823L77.0487 67.9124L70.6942 74.2669L77.0487 80.6214Z" fill="#FF0000"/>
</svg>
