<svg width="74" height="71" viewBox="0 0 74 71" fill="none" xmlns="http://www.w3.org/2000/svg">
<path d="M67.2604 29.0196H43.733V6.46478C43.733 2.89461 40.7308 0 37.0098 0C33.2887 0 30.2881 2.89461 30.2881 6.46635V29.0352H6.74935C3.02832 29.0352 0.00325557 31.9298 0.00488546 35.5016C0.00325557 37.2859 0.754632 38.9216 1.97216 40.0898C3.19131 41.2611 4.87335 42.0007 6.73142 42.0007H30.2881V64.5383C30.2881 66.3242 31.0265 67.9412 32.2456 69.1078C33.4648 70.2775 35.1419 71.0016 37.0033 71.0016C40.7226 71.0016 43.733 68.107 43.733 64.5383V41.9992H67.2604C70.9814 41.9992 73.9984 39.0796 73.9967 35.5094C73.9951 31.9408 70.9782 29.0196 67.2604 29.0196Z" fill="white"/>
</svg>
